 <svg  xmlns="http://www.w3.org/2000/svg">
 <g>
  
  <circle  r="12.5" cy="12.77383" cx="12.63093" fill="#e5ca00"/>
  <path fill="#ffffff"  d="m17.99954,8.06668l0,-1.40708l0.20769,0c0.51092,0.0014 0.92785,-0.40839 0.93562,-0.91915l0,-1.9879c-0.00761,-0.51108 -0.42439,-0.92117 -0.93562,-0.92055l-11.15273,0c-0.51123,-0.00063 -0.92801,0.40948 -0.93547,0.92055l0,1.9879c0.00777,0.51076 0.42455,0.92055 0.93547,0.91915l0.20785,0l0,1.40708c-0.00077,0.66642 0.30292,1.29664 0.82455,1.71124l3.73969,2.98985l-3.66621,2.84384c-0.53671,0.41352 -0.85049,1.05368 -0.84832,1.73143l0,1.54503l-0.25756,0c-0.51092,-0.0014 -0.9277,0.40839 -0.93547,0.91915l0,1.9879c0.00746,0.51108 0.42423,0.92117 0.93547,0.92055l11.15273,0c0.51123,0.00063 0.92801,-0.40948 0.93562,-0.92055l0,-1.9879c-0.00777,-0.51076 -0.4247,-0.92055 -0.93562,-0.91915l-0.15798,0l0,-1.53524c-0.0031,-0.68444 -0.32373,-1.32864 -0.86789,-1.74386l-3.74077,-2.84508l3.73503,-2.98612c0.52148,-0.4146 0.82502,-1.04498 0.82393,-1.71108l0.00001,0zm-10.88632,-4.24051l11.03544,0l0,1.83924l-11.03544,0l0,-1.83924zm11.03544,17.89532l-11.03544,0l0,-1.83924l0.61018,0c0.02859,0 0.05748,0.00807 0.08746,0.00807c0.02983,0 0.05903,-0.00807 0.08761,-0.00807l9.5597,0c0.02843,0 0.05763,0.00807 0.08746,0.00807c0.02998,0 0.05903,-0.00807 0.08746,-0.00807l0.51558,0l0,1.83924l-0.00001,0zm-1.09361,-4.36866l0,1.53524l-8.74882,0l0,-1.54503c-0.00077,-0.37033 0.17057,-0.72001 0.46416,-0.94587l3.86303,-2.99653l3.94582,2.99949c0.29764,0.2268 0.47348,0.57864 0.47581,0.95271l0,-0.00001zm-0.50128,-8.35146l-3.9219,3.13603l-3.9233,-3.13603c-0.28552,-0.22618 -0.45205,-0.57041 -0.45205,-0.93469l0,-1.40708l8.74882,0l0,1.40708c0,0.36427 -0.16621,0.70835 -0.45158,0.93469l0.00001,0zm0,0"/>
 </g>
</svg>