


<svg  xmlns="http://www.w3.org/2000/svg" viewBox="0 0 512 512" height="0">
<g >
	<g >
		<path fill="#fff"  d="M400.809,462.904v-51.088c0-60.171-46.494-96.158-91.179-131.268c-6.172-4.839-14.028-14.028-14.028-28.055
			s7.077-27.704,14.028-33.554c43.477-36.583,91.179-71.098,91.179-131.268V49.096h35.068V0H63.123v49.096h35.068v38.576
			c0,60.171,47.7,94.685,91.179,131.268c6.951,5.85,14.028,19.526,14.028,33.554c0,14.028-7.856,23.215-14.028,28.055
			c-44.684,35.111-91.179,71.098-91.179,131.268v51.088H63.123V512h385.753v-49.096H413.809z M167.438,133.26
			c-12.927-14.631-20.15-28.714-20.15-45.589V49.096h217.424v38.576c0,16.874-7.225,30.959-20.15,45.589H167.438z M364.712,449.221
			l-82.572-32.227c-14.378-5.611-37.895-5.611-52.273,0l-82.579,32.229v-37.404c0-34.045,27.059-57.035,71.217-91.725l1.171-0.918
			c16.762-13.144,27.634-31.449,31.324-51.621c3.303,0.736,6.698,0.736,10.001,0c3.675,20.165,14.56,38.471,31.301,51.6l1.192,0.939
			c44.158,34.688,71.217,57.672,71.217,91.724V449.221z"/>
	</g>
</g>

</svg>
